<svg width="100" height="100" viewBox="0 0 100 100" xmlns="http://www.w3.org/2000/svg">
  <rect width="100" height="100" fill="#000000"/>
  <g transform="translate(20, 20)">
    <!-- Netflix N Logo -->
    <path d="M15 0 L15 60 L25 60 L25 20 L45 20 L45 60 L55 60 L55 0 L45 0 L45 15 L25 15 L25 0 Z" fill="#E50914"/>
    <path d="M15 0 L15 10 L25 10 L25 20 L35 20 L35 10 L45 10 L45 0 Z" fill="#B81D13"/>
    <path d="M15 50 L15 60 L25 60 L25 50 L35 50 L35 60 L45 60 L45 50 Z" fill="#B81D13"/>
  </g>
</svg>
